<?xml version="1.0" encoding="iso-8859-1"?>
<!DOCTYPE svg PUBLIC "-//W3C//DTD SVG 1.1//EN" "http://www.w3.org/Graphics/SVG/1.1/DTD/svg11.dtd">
<svg fill="#000000" height="current" width="current" version="1.1" id="Capa_1" xmlns="http://www.w3.org/2000/svg" xmlns:xlink="http://www.w3.org/1999/xlink" 
	 viewBox="0 0 44 44" xml:space="preserve">
<path d="M22,0C9.869,0,0,9.869,0,22s9.869,22,22,22s22-9.869,22-22S34.131,0,22,0z M29.5,11c1.933,0,3.5,1.567,3.5,3.5
	S31.433,18,29.5,18S26,16.433,26,14.5S27.567,11,29.5,11z M13.5,11c1.933,0,3.5,1.567,3.5,3.5S15.433,18,13.5,18S10,16.433,10,14.5
	S11.567,11,13.5,11z M33,31H11c-0.553,0-1-0.448-1-1s0.447-1,1-1h22c0.553,0,1,0.448,1,1S33.553,31,33,31z"/>
</svg>